# xmcd database file
#
# Track frame offsets:
# 150
# 33917
# 53056
# 89174
# 121403
# 154595
# 182335
# 207938
# 243029
# 279820
# 307584
#
# Disc length: 4536 seconds
#
# Revision: 0
# Processed by: cddbd v1.5.2PL0 Copyright (c) Steve Scherf et al.
# Submitted via: CD-Runner 2007.02
#
DISCID=7e11b60b
DTITLE=Hot Buttered Rum - 2008-05-25 Summercamp
DYEAR=1900
DGENRE=Blue Grass
TTITLE0=01_Silas
TTITLE1=02_Pay_Yer_Dues
TTITLE2=03_Possum
TTITLE3=04_Golden_Days
TTITLE4=05_Busted_In_Utah
TTITLE5=06_Bit_By_Bit
TTITLE6=07_Beneath_The_Blossoms
TTITLE7=08_You_Make_Me_Feel_Like_Dancin
TTITLE8=09_Honkytonk_Tequila
TTITLE9=10_Right_Between_Your_Eyes
TTITLE10=11_Summertime_Gal
EXTD=
EXTT0=hbr080525d1
EXTT1=hbr080525d1
EXTT2=hbr080525d1
EXTT3=hbr080525d1
EXTT4=hbr080525d1
EXTT5=hbr080525d1
EXTT6=hbr080525d1
EXTT7=hbr080525d1
EXTT8=hbr080525d1
EXTT9=hbr080525d1
EXTT10=hbr080525d1
PLAYORDER=
